<svg xmlns="http://www.w3.org/2000/svg" viewBox="0 0 200 200" fill="none" role="img" aria-label="Basalt Emblem">
  <defs>
    <!-- Molten Magma Conduits Gradient -->
    <linearGradient id="conduit-top-right" x1="100" y1="45" x2="155" y2="85" gradientUnits="userSpaceOnUse">
      <stop offset="0%" stop-color="#ff3a00" />
      <stop offset="50%" stop-color="#ff7700" />
      <stop offset="100%" stop-color="#ffaa00" />
    </linearGradient>
    <linearGradient id="conduit-right-bottom" x1="155" y1="85" x2="120" y2="140" gradientUnits="userSpaceOnUse">
      <stop offset="0%" stop-color="#ffaa00" />
      <stop offset="50%" stop-color="#ff7700" />
      <stop offset="100%" stop-color="#ff3a00" />
    </linearGradient>
    <!-- Glow filter -->
    <filter id="magma-glow" x="-30%" y="-30%" width="160%" height="160%">
      <feGaussianBlur stdDeviation="4" result="blur" />
      <feComposite in="SourceGraphic" in2="blur" operator="over" />
    </filter>
  </defs>

  <!-- Magma connectors glow underlayer -->
  <line x1="100" y1="45" x2="155" y2="85" stroke="#ff5500" stroke-width="8" stroke-linecap="round" opacity="0.6" filter="url(#magma-glow)" />
  <line x1="155" y1="85" x2="120" y2="140" stroke="#ff5500" stroke-width="8" stroke-linecap="round" opacity="0.6" filter="url(#magma-glow)" />

  <!-- Dark graphite connectors -->
  <line x1="100" y1="45" x2="62" y2="100" stroke="#232530" stroke-width="5" stroke-linecap="round" />
  <line x1="62" y1="100" x2="120" y2="140" stroke="#232530" stroke-width="5" stroke-linecap="round" />

  <!-- Glowing orange rods -->
  <line x1="100" y1="45" x2="155" y2="85" stroke="url(#conduit-top-right)" stroke-width="4.5" stroke-linecap="round" />
  <line x1="155" y1="85" x2="120" y2="140" stroke="url(#conduit-right-bottom)" stroke-width="4.5" stroke-linecap="round" />

  <!-- 1. Top Hexagonal Basalt Column -->
  <g transform="translate(100, 45)">
    <!-- Facets -->
    <polygon points="0,-22 19,-11 19,11 0,22 -19,11 -19,-11" fill="#1b1c22" stroke="#2e313d" stroke-width="1.2" />
    <polygon points="0,0 19,-11 19,11 0,22" fill="#262833" />
    <polygon points="0,0 0,22 -19,11 -19,-11" fill="#131418" />
    <polygon points="0,0 -19,-11 0,-22 19,-11" fill="#323544" />
    <!-- Magma reflection on right edge -->
    <line x1="0" y1="22" x2="19" y2="11" stroke="#ff6a00" stroke-width="1.5" opacity="0.8" />
  </g>

  <!-- 2. Left Large Basalt Column -->
  <g transform="translate(62, 100) scale(1.4)">
    <polygon points="0,-22 19,-11 19,11 0,22 -19,11 -19,-11" fill="#1b1c22" stroke="#2e313d" stroke-width="1" />
    <polygon points="0,0 19,-11 19,11 0,22" fill="#252732" />
    <polygon points="0,0 0,22 -19,11 -19,-11" fill="#111216" />
    <polygon points="0,0 -19,-11 0,-22 19,-11" fill="#2d2f3d" />
  </g>

  <!-- 3. Right Basalt Column -->
  <g transform="translate(155, 85)">
    <polygon points="0,-22 19,-11 19,11 0,22 -19,11 -19,-11" fill="#1b1c22" stroke="#2e313d" stroke-width="1.2" />
    <polygon points="0,0 19,-11 19,11 0,22" fill="#262833" />
    <polygon points="0,0 0,22 -19,11 -19,-11" fill="#14151a" />
    <polygon points="0,0 -19,-11 0,-22 19,-11" fill="#333646" />
    <!-- Magma reflection -->
    <line x1="-19" y1="-11" x2="0" y2="0" stroke="#ff6a00" stroke-width="1.5" opacity="0.9" />
    <line x1="0" y1="0" x2="-19" y2="11" stroke="#ff6a00" stroke-width="1.5" opacity="0.9" />
  </g>

  <!-- 4. Bottom Basalt Column -->
  <g transform="translate(120, 140)">
    <polygon points="0,-22 19,-11 19,11 0,22 -19,11 -19,-11" fill="#1b1c22" stroke="#2e313d" stroke-width="1.2" />
    <polygon points="0,0 19,-11 19,11 0,22" fill="#252732" />
    <polygon points="0,0 0,22 -19,11 -19,-11" fill="#121317" />
    <polygon points="0,0 -19,-11 0,-22 19,-11" fill="#303240" />
    <!-- Magma reflection on top-right facet -->
    <line x1="0" y1="-22" x2="19" y2="-11" stroke="#ff6a00" stroke-width="1.5" opacity="0.9" />
  </g>
</svg>
